<mxfile host="65bd71144e">
    <diagram name="Page-1" id="e7e014a7-5840-1c2e-5031-d8a46d1fe8dd">
        <mxGraphModel dx="1002" dy="571" grid="1" gridSize="10" guides="1" tooltips="1" connect="1" arrows="1" fold="1" page="1" pageScale="1" pageWidth="1169" pageHeight="826" background="none" math="0" shadow="0">
            <root>
                <mxCell id="0"/>
                <mxCell id="1" parent="0"/>
                <mxCell id="10" style="edgeStyle=none;html=1;entryX=0;entryY=0.5;entryDx=0;entryDy=0;" parent="1" source="rLQLFMsgkA317vlZWeWC-41" target="tvDQLb94FSbdd8hoaycc-17" edge="1">
                    <mxGeometry relative="1" as="geometry"/>
                </mxCell>
                <mxCell id="11" style="edgeStyle=none;html=1;entryX=0;entryY=0.5;entryDx=0;entryDy=0;" parent="1" source="rLQLFMsgkA317vlZWeWC-41" target="tvDQLb94FSbdd8hoaycc-9" edge="1">
                    <mxGeometry relative="1" as="geometry"/>
                </mxCell>
                <mxCell id="12" style="edgeStyle=none;html=1;entryX=0;entryY=0.5;entryDx=0;entryDy=0;" parent="1" source="rLQLFMsgkA317vlZWeWC-41" target="tvDQLb94FSbdd8hoaycc-11" edge="1">
                    <mxGeometry relative="1" as="geometry"/>
                </mxCell>
                <mxCell id="13" style="edgeStyle=none;html=1;entryX=0;entryY=0.5;entryDx=0;entryDy=0;" parent="1" source="rLQLFMsgkA317vlZWeWC-41" target="tvDQLb94FSbdd8hoaycc-10" edge="1">
                    <mxGeometry relative="1" as="geometry"/>
                </mxCell>
                <mxCell id="14" style="edgeStyle=none;html=1;entryX=0;entryY=0.5;entryDx=0;entryDy=0;" parent="1" source="rLQLFMsgkA317vlZWeWC-41" target="tvDQLb94FSbdd8hoaycc-14" edge="1">
                    <mxGeometry relative="1" as="geometry"/>
                </mxCell>
                <mxCell id="rLQLFMsgkA317vlZWeWC-41" value="Сотрудник" style="shape=umlActor;verticalLabelPosition=bottom;verticalAlign=top;html=1;" parent="1" vertex="1">
                    <mxGeometry x="50" y="235" width="30" height="60" as="geometry"/>
                </mxCell>
                <mxCell id="tvDQLb94FSbdd8hoaycc-17" value="Создать тайм трекер" style="ellipse;whiteSpace=wrap;html=1;" parent="1" vertex="1">
                    <mxGeometry x="250" y="40" width="140" height="70" as="geometry"/>
                </mxCell>
                <mxCell id="tvDQLb94FSbdd8hoaycc-9" value="Изменить тайм трекер" style="ellipse;whiteSpace=wrap;html=1;" parent="1" vertex="1">
                    <mxGeometry x="250" y="130" width="140" height="70" as="geometry"/>
                </mxCell>
                <mxCell id="tvDQLb94FSbdd8hoaycc-11" value="Удалить тайм трекер" style="ellipse;whiteSpace=wrap;html=1;" parent="1" vertex="1">
                    <mxGeometry x="250" y="225" width="140" height="70" as="geometry"/>
                </mxCell>
                <mxCell id="tvDQLb94FSbdd8hoaycc-12" value="Найти список трекеров по фильтрам" style="ellipse;whiteSpace=wrap;html=1;" parent="1" vertex="1">
                    <mxGeometry x="600" y="410" width="140" height="70" as="geometry"/>
                </mxCell>
                <mxCell id="tvDQLb94FSbdd8hoaycc-13" value="&amp;lt;&amp;lt;extend&amp;gt;&amp;gt;" style="html=1;verticalAlign=bottom;endArrow=open;dashed=1;endSize=8;curved=0;rounded=0;entryX=1;entryY=0.5;entryDx=0;entryDy=0;exitX=0;exitY=0.5;exitDx=0;exitDy=0;" parent="1" source="tvDQLb94FSbdd8hoaycc-12" target="tvDQLb94FSbdd8hoaycc-10" edge="1">
                    <mxGeometry relative="1" as="geometry">
                        <mxPoint x="480" y="550" as="sourcePoint"/>
                        <mxPoint x="400" y="550" as="targetPoint"/>
                    </mxGeometry>
                </mxCell>
                <mxCell id="tvDQLb94FSbdd8hoaycc-15" value="&amp;lt;&amp;lt;extend&amp;gt;&amp;gt;" style="html=1;verticalAlign=bottom;endArrow=open;dashed=1;endSize=8;curved=0;rounded=0;entryX=1;entryY=0.5;entryDx=0;entryDy=0;exitX=0;exitY=0;exitDx=0;exitDy=0;" parent="1" source="tvDQLb94FSbdd8hoaycc-12" target="tvDQLb94FSbdd8hoaycc-14" edge="1">
                    <mxGeometry relative="1" as="geometry">
                        <mxPoint x="510" y="375.5" as="sourcePoint"/>
                        <mxPoint x="390" y="423.5" as="targetPoint"/>
                    </mxGeometry>
                </mxCell>
                <mxCell id="tvDQLb94FSbdd8hoaycc-10" value="Посмотреть список тайм трекеров по задачам" style="ellipse;whiteSpace=wrap;html=1;" parent="1" vertex="1">
                    <mxGeometry x="250" y="413" width="140" height="70" as="geometry"/>
                </mxCell>
                <mxCell id="tvDQLb94FSbdd8hoaycc-14" value="Построить отчет тайм трекеров по задачам" style="ellipse;whiteSpace=wrap;html=1;" parent="1" vertex="1">
                    <mxGeometry x="250" y="320" width="140" height="70" as="geometry"/>
                </mxCell>
                <mxCell id="7" style="edgeStyle=none;html=1;entryX=0;entryY=0.5;entryDx=0;entryDy=0;" parent="1" source="2" target="5" edge="1">
                    <mxGeometry relative="1" as="geometry"/>
                </mxCell>
                <mxCell id="9" style="edgeStyle=none;html=1;entryX=0;entryY=0.5;entryDx=0;entryDy=0;" parent="1" source="2" target="8" edge="1">
                    <mxGeometry relative="1" as="geometry"/>
                </mxCell>
                <mxCell id="2" value="Руководитель&lt;br&gt;" style="shape=umlActor;verticalLabelPosition=bottom;verticalAlign=top;html=1;" parent="1" vertex="1">
                    <mxGeometry x="50" y="640" width="30" height="60" as="geometry"/>
                </mxCell>
                <mxCell id="5" value="Просмотреть учет рабочего времени по сотрудникам" style="ellipse;whiteSpace=wrap;html=1;" parent="1" vertex="1">
                    <mxGeometry x="250" y="580" width="140" height="70" as="geometry"/>
                </mxCell>
                <mxCell id="6" value="&amp;lt;&amp;lt;extend&amp;gt;&amp;gt;" style="html=1;verticalAlign=bottom;endArrow=open;dashed=1;endSize=8;curved=0;rounded=0;entryX=1;entryY=0.5;entryDx=0;entryDy=0;exitX=0;exitY=1;exitDx=0;exitDy=0;" parent="1" source="tvDQLb94FSbdd8hoaycc-12" target="5" edge="1">
                    <mxGeometry relative="1" as="geometry">
                        <mxPoint x="630.5025253169417" y="509.74873734152925" as="sourcePoint"/>
                        <mxPoint x="440" y="525" as="targetPoint"/>
                    </mxGeometry>
                </mxCell>
                <mxCell id="8" value="Согласовать отработанное время сотрудника" style="ellipse;whiteSpace=wrap;html=1;" parent="1" vertex="1">
                    <mxGeometry x="250" y="680" width="140" height="70" as="geometry"/>
                </mxCell>
                <mxCell id="15" value="Отправить отчёт руководителю" style="ellipse;whiteSpace=wrap;html=1;" parent="1" vertex="1">
                    <mxGeometry x="600" y="250" width="140" height="70" as="geometry"/>
                </mxCell>
                <mxCell id="17" value="&amp;lt;&amp;lt;include&amp;gt;&amp;gt;" style="html=1;verticalAlign=bottom;labelBackgroundColor=none;endArrow=open;endFill=0;dashed=1;rounded=0;exitX=1;exitY=0;exitDx=0;exitDy=0;entryX=0;entryY=0.5;entryDx=0;entryDy=0;" parent="1" source="tvDQLb94FSbdd8hoaycc-14" target="15" edge="1">
                    <mxGeometry width="160" relative="1" as="geometry">
                        <mxPoint x="392.63961030678934" y="201.7157287525381" as="sourcePoint"/>
                        <mxPoint x="501.2572104451849" y="212.70675707699638" as="targetPoint"/>
                    </mxGeometry>
                </mxCell>
            </root>
        </mxGraphModel>
    </diagram>
</mxfile>